HIERARCHY
ROOT Hips
{
	OFFSET 0.000000 0.000000 0.000000
	CHANNELS 6 Xposition Yposition Zposition Zrotation Yrotation Xrotation 
	JOINT Spine1
	{
		OFFSET -0.013727 5.003762 -0.053727
		CHANNELS 3 Zrotation Yrotation Xrotation
		JOINT Spine2
		{
			OFFSET -0.000000 7.125303 -0.029825
			CHANNELS 3 Zrotation Yrotation Xrotation
			JOINT Chest
			{
				OFFSET -0.000001 7.550062 -0.815971
				CHANNELS 3 Zrotation Yrotation Xrotation
				JOINT Neck1
				{
					OFFSET -0.181677 26.311296 -0.553349
					CHANNELS 3 Zrotation Yrotation Xrotation
					JOINT Neck2
					{
						OFFSET -0.000003 7.709398 2.302586
						CHANNELS 3 Zrotation Yrotation Xrotation
						JOINT Head
						{
							OFFSET -0.000005 6.128912 1.953709
							CHANNELS 3 Zrotation Yrotation Xrotation
							JOINT HeadEnd
							{
								OFFSET 0.003598 16.065401 -1.835379
								CHANNELS 3 Zrotation Yrotation Xrotation
								End Site
								{
									OFFSET 0.000000 0.000000 0.000000
								}
							}
							JOINT Jaw
							{
								OFFSET 0.002637 0.475592 3.094941
								CHANNELS 3 Zrotation Yrotation Xrotation
								End Site
								{
									OFFSET 0.000000 0.000000 0.000000
								}
							}
							JOINT LeftEye
							{
								OFFSET 3.206380 5.380208 7.586883
								CHANNELS 3 Zrotation Yrotation Xrotation
								End Site
								{
									OFFSET 0.000000 0.000000 0.000000
								}
							}
							JOINT RightEye
							{
								OFFSET -3.222440 5.361866 7.558233
								CHANNELS 3 Zrotation Yrotation Xrotation
								End Site
								{
									OFFSET 0.000000 0.000000 0.000000
								}
							}
						}
					}
				}
				JOINT LeftShoulder
				{
					OFFSET 1.621652 23.237165 5.113413
					CHANNELS 3 Zrotation Yrotation Xrotation
					JOINT LeftArm
					{
						OFFSET 14.919845 -0.000001 -5.502326
						CHANNELS 3 Zrotation Yrotation Xrotation
						JOINT LeftForeArm
						{
							OFFSET 28.739309 0.000002 -0.002588
							CHANNELS 3 Zrotation Yrotation Xrotation
							JOINT LeftHand
							{
								OFFSET 27.093979 -0.000003 0.002608
								CHANNELS 3 Zrotation Yrotation Xrotation
								JOINT LeftHandThumb1
								{
									OFFSET 2.276480 -1.392045 3.191413
									CHANNELS 3 Zrotation Yrotation Xrotation
									JOINT LeftHandThumb2
									{
										OFFSET 4.012841 -1.828126 1.641655
										CHANNELS 3 Zrotation Yrotation Xrotation
										JOINT LeftHandThumb3
										{
											OFFSET 2.798516 -0.000000 -0.000004
											CHANNELS 3 Zrotation Yrotation Xrotation
											JOINT LeftHandThumbEnd
											{
												OFFSET 3.180791 -0.000002 0.000003
												CHANNELS 3 Zrotation Yrotation Xrotation
												End Site
												{
													OFFSET 0.000000 0.000000 0.000000
												}
											}
										}
									}
								}
								JOINT LeftHandIndex1
								{
									OFFSET 3.247554 -0.531998 2.296169
									CHANNELS 3 Zrotation Yrotation Xrotation
									JOINT LeftHandIndex2
									{
										OFFSET 6.364580 0.012062 0.178599
										CHANNELS 3 Zrotation Yrotation Xrotation
										JOINT LeftHandIndex3
										{
											OFFSET 3.662366 0.000001 -0.000000
											CHANNELS 3 Zrotation Yrotation Xrotation
											JOINT LeftHandIndex4
											{
												OFFSET 2.329243 0.000003 0.000004
												CHANNELS 3 Zrotation Yrotation Xrotation
												JOINT LeftHandIndexEnd
												{
													OFFSET 2.759619 -0.180539 -0.113024
													CHANNELS 3 Zrotation Yrotation Xrotation
													End Site
													{
														OFFSET 0.000000 0.000000 0.000000
													}
												}
											}
										}
									}
								}
								JOINT LeftHandMiddle1
								{
									OFFSET 3.163499 0.240982 1.000332
									CHANNELS 3 Zrotation Yrotation Xrotation
									JOINT LeftHandMiddle2
									{
										OFFSET 6.190778 -0.259276 -1.002549
										CHANNELS 3 Zrotation Yrotation Xrotation
										JOINT LeftHandMiddle3
										{
											OFFSET 4.356523 -0.000006 0.000000
											CHANNELS 3 Zrotation Yrotation Xrotation
											JOINT LeftHandMiddle4
											{
												OFFSET 2.996875 -0.000006 0.000000
												CHANNELS 3 Zrotation Yrotation Xrotation
												JOINT LeftHandMiddleEnd
												{
													OFFSET 2.304294 -0.294572 -0.031739
													CHANNELS 3 Zrotation Yrotation Xrotation
													End Site
													{
														OFFSET 0.000000 0.000000 0.000000
													}
												}
											}
										}
									}
								}
								JOINT LeftHandRing1
								{
									OFFSET 2.882642 -0.053650 -0.322543
									CHANNELS 3 Zrotation Yrotation Xrotation
									JOINT LeftHandRing2
									{
										OFFSET 5.854543 -0.486203 -1.373841
										CHANNELS 3 Zrotation Yrotation Xrotation
										JOINT LeftHandRing3
										{
											OFFSET 4.350581 0.000000 0.000003
											CHANNELS 3 Zrotation Yrotation Xrotation
											JOINT LeftHandRing4
											{
												OFFSET 2.651325 0.000008 0.000004
												CHANNELS 3 Zrotation Yrotation Xrotation
												JOINT LeftHandRingEnd
												{
													OFFSET 1.936111 0.077686 -0.000070
													CHANNELS 3 Zrotation Yrotation Xrotation
													End Site
													{
														OFFSET 0.000000 0.000000 0.000000
													}
												}
											}
										}
									}
								}
								JOINT LeftHandPinky1
								{
									OFFSET 2.865499 -0.310004 -1.600378
									CHANNELS 3 Zrotation Yrotation Xrotation
									JOINT LeftHandPinky2
									{
										OFFSET 5.087852 -1.331142 -1.771231
										CHANNELS 3 Zrotation Yrotation Xrotation
										JOINT LeftHandPinky3
										{
											OFFSET 3.070975 0.000003 0.000001
											CHANNELS 3 Zrotation Yrotation Xrotation
											JOINT LeftHandPinky4
											{
												OFFSET 1.549667 0.000000 0.000001
												CHANNELS 3 Zrotation Yrotation Xrotation
												JOINT LeftHandPinkyEnd
												{
													OFFSET 1.944894 -0.157802 0.057219
													CHANNELS 3 Zrotation Yrotation Xrotation
													End Site
													{
														OFFSET 0.000000 0.000000 0.000000
													}
												}
											}
										}
									}
								}
							}
						}
					}
				}
				JOINT RightShoulder
				{
					OFFSET -1.380118 23.180309 5.214158
					CHANNELS 3 Zrotation Yrotation Xrotation
					JOINT RightArm
					{
						OFFSET -15.037197 0.000010 -5.545604
						CHANNELS 3 Zrotation Yrotation Xrotation
						JOINT RightForeArm
						{
							OFFSET -28.736639 0.000003 -0.002597
							CHANNELS 3 Zrotation Yrotation Xrotation
							JOINT RightHand
							{
								OFFSET -27.133617 -0.000001 0.002613
								CHANNELS 3 Zrotation Yrotation Xrotation
								JOINT RightHandThumb1
								{
									OFFSET -2.274036 -1.383990 3.163128
									CHANNELS 3 Zrotation Yrotation Xrotation
									JOINT RightHandThumb2
									{
										OFFSET -4.011430 -1.827467 1.640914
										CHANNELS 3 Zrotation Yrotation Xrotation
										JOINT RightHandThumb3
										{
											OFFSET -2.794933 -0.000004 -0.000003
											CHANNELS 3 Zrotation Yrotation Xrotation
											JOINT RightHandThumbEnd
											{
												OFFSET -3.183855 0.000003 0.000000
												CHANNELS 3 Zrotation Yrotation Xrotation
												End Site
												{
													OFFSET 0.000000 0.000000 0.000000
												}
											}
										}
									}
								}
								JOINT RightHandIndex1
								{
									OFFSET -3.253270 -0.520059 2.282866
									CHANNELS 3 Zrotation Yrotation Xrotation
									JOINT RightHandIndex2
									{
										OFFSET -6.341917 0.012472 0.178265
										CHANNELS 3 Zrotation Yrotation Xrotation
										JOINT RightHandIndex3
										{
											OFFSET -3.654874 -0.000009 -0.000001
											CHANNELS 3 Zrotation Yrotation Xrotation
											JOINT RightHandIndex4
											{
												OFFSET -2.327587 0.000001 0.000001
												CHANNELS 3 Zrotation Yrotation Xrotation
												JOINT RightHandIndexEnd
												{
													OFFSET -2.761789 -0.180658 -0.113078
													CHANNELS 3 Zrotation Yrotation Xrotation
													End Site
													{
														OFFSET 0.000000 0.000000 0.000000
													}
												}
											}
										}
									}
								}
								JOINT RightHandMiddle1
								{
									OFFSET -3.168106 0.246593 1.001030
									CHANNELS 3 Zrotation Yrotation Xrotation
									JOINT RightHandMiddle2
									{
										OFFSET -6.180830 -0.258836 -1.000896
										CHANNELS 3 Zrotation Yrotation Xrotation
										JOINT RightHandMiddle3
										{
											OFFSET -4.348905 0.000000 -0.000000
											CHANNELS 3 Zrotation Yrotation Xrotation
											JOINT RightHandMiddle4
											{
												OFFSET -3.000243 -0.000003 -0.000002
												CHANNELS 3 Zrotation Yrotation Xrotation
												JOINT RightHandMiddleEnd
												{
													OFFSET -2.302518 -0.294371 -0.031706
													CHANNELS 3 Zrotation Yrotation Xrotation
													End Site
													{
														OFFSET 0.000000 0.000000 0.000000
													}
												}
											}
										}
									}
								}
								JOINT RightHandRing1
								{
									OFFSET -2.885694 -0.067952 -0.308858
									CHANNELS 3 Zrotation Yrotation Xrotation
									JOINT RightHandRing2
									{
										OFFSET -5.854195 -0.486133 -1.373732
										CHANNELS 3 Zrotation Yrotation Xrotation
										JOINT RightHandRing3
										{
											OFFSET -4.338815 -0.000002 -0.000000
											CHANNELS 3 Zrotation Yrotation Xrotation
											JOINT RightHandRing4
											{
												OFFSET -2.654905 -0.000005 0.000004
												CHANNELS 3 Zrotation Yrotation Xrotation
												JOINT RightHandRingEnd
												{
													OFFSET -1.933570 0.077524 -0.000052
													CHANNELS 3 Zrotation Yrotation Xrotation
													End Site
													{
														OFFSET 0.000000 0.000000 0.000000
													}
												}
											}
										}
									}
								}
								JOINT RightHandPinky1
								{
									OFFSET -2.866429 -0.342799 -1.584145
									CHANNELS 3 Zrotation Yrotation Xrotation
									JOINT RightHandPinky2
									{
										OFFSET -5.091370 -1.332054 -1.772385
										CHANNELS 3 Zrotation Yrotation Xrotation
										JOINT RightHandPinky3
										{
											OFFSET -3.062666 -0.000007 0.000000
											CHANNELS 3 Zrotation Yrotation Xrotation
											JOINT RightHandPinky4
											{
												OFFSET -1.546527 0.000005 -0.000002
												CHANNELS 3 Zrotation Yrotation Xrotation
												JOINT RightHandPinkyEnd
												{
													OFFSET -1.945122 -0.157721 0.057211
													CHANNELS 3 Zrotation Yrotation Xrotation
													End Site
													{
														OFFSET 0.000000 0.000000 0.000000
													}
												}
											}
										}
									}
								}
							}
						}
					}
				}
			}
		}
	}
	JOINT LeftLeg
	{
		OFFSET 10.043214 -8.434526 2.595655
		CHANNELS 3 Zrotation Yrotation Xrotation
		JOINT LeftShin
		{
			OFFSET -0.000001 -43.221752 -0.802913
			CHANNELS 3 Zrotation Yrotation Xrotation
			JOINT LeftFoot
			{
				OFFSET 0.000001 -42.155094 -3.481524
				CHANNELS 3 Zrotation Yrotation Xrotation
				JOINT LeftToeBase
				{
					OFFSET -0.000000 -5.059475 13.231529
					CHANNELS 3 Zrotation Yrotation Xrotation
					JOINT LeftToeEnd
					{
						OFFSET -0.009607 -1.647615 6.513017
						CHANNELS 3 Zrotation Yrotation Xrotation
						End Site
						{
							OFFSET 0.000000 0.000000 0.000000
						}
					}
				}
			}
		}
	}
	JOINT RightLeg
	{
		OFFSET -10.047277 -8.295259 2.620317
		CHANNELS 3 Zrotation Yrotation Xrotation
		JOINT RightShin
		{
			OFFSET 0.000001 -43.362209 -0.805556
			CHANNELS 3 Zrotation Yrotation Xrotation
			JOINT RightFoot
			{
				OFFSET 0.000002 -42.117393 -3.478398
				CHANNELS 3 Zrotation Yrotation Xrotation
				JOINT RightToeBase
				{
					OFFSET -0.000001 -5.079609 13.284196
					CHANNELS 3 Zrotation Yrotation Xrotation
					JOINT RightToeEnd
					{
						OFFSET 0.009532 -1.634383 6.460591
						CHANNELS 3 Zrotation Yrotation Xrotation
						End Site
						{
							OFFSET 0.000000 0.000000 0.000000
						}
					}
				}
			}
		}
	}
}
MOTION
Frames: 4
Frame Time: 0.033333
9.466905 95.675545 8.239930 -1.646855 -5.154150 2.882594 -0.547582 -0.126924 1.581197 -0.788183 -1.593192 -3.990154 -0.954269 -3.820009 9.828577 -7.520066 7.516090 13.285402 2.400817 12.086698 -3.455674 -1.585708 13.206309 -12.791920 0.000077 -0.000022 0.000006 -0.001810 -0.082603 0.003489 0.703583 -3.818200 -10.651662 -0.711635 3.661944 -10.641241 9.783463 -13.772845 6.282331 -27.776777 -22.908314 -54.019485 177.971436 -50.564384 -178.734863 4.267385 -3.953988 -1.799096 -5.882101 9.861277 0.702589 -10.936860 -0.360574 7.156199 0.000002 8.774812 0.000000 -16.477242 17.672915 5.852982 -1.844033 2.498501 -2.507277 -10.163589 4.678939 4.621103 -20.976000 -0.000005 0.000001 -21.226254 2.451691 -3.593993 0.000000 -0.000008 -0.000000 -1.362682 2.240796 -0.746324 -21.334892 0.584908 3.008321 -13.821198 -0.000004 0.000001 -23.887135 -0.249080 -0.839480 -60.225872 2.510124 -1.533123 -0.294025 1.679686 0.833255 -14.218190 0.093214 1.300577 -34.212013 -0.287565 0.967169 -20.033180 0.964534 1.212842 0.000000 -0.000001 0.000000 -3.440386 0.788232 0.501655 -15.928173 -3.167306 2.999703 -6.338817 -0.000002 0.000000 -18.123415 3.648175 -4.905660 -0.000004 -0.000001 -0.000002 1.996504 -2.616391 11.317919 51.605698 79.918854 3.935661 -179.206589 40.174236 -179.755203 -8.450793 -4.535260 -6.984973 2.243538 -5.255033 -3.180154 14.282877 -0.826594 6.952495 -0.000003 -12.690591 0.000001 15.865547 -17.364937 2.520795 1.665667 -1.955920 -2.878296 4.727791 -4.170583 4.993918 11.020510 0.000003 -0.000002 12.109035 -3.735711 -2.866781 -0.000001 0.000000 0.000000 1.291985 -1.928548 -1.498089 14.800113 0.567468 3.865601 14.242553 -1.341733 -6.660650 19.631939 0.143928 -0.648244 49.022213 -0.652589 -6.322582 0.353029 -1.511150 -0.031939 20.222767 3.684306 2.316626 18.787243 0.000006 -0.000002 10.751610 -0.479866 1.397904 0.000000 0.000000 0.000000 3.273802 0.305947 -0.580110 21.486790 11.830365 2.266129 8.162916 0.000002 -0.000001 18.399054 -3.798978 -4.940569 0.000003 0.000000 -0.000001 14.416353 12.463864 -25.032349 -0.151833 -0.573072 23.906296 -16.368853 -1.400932 2.025759 1.632628 -1.882051 0.626019 0.000000 -0.000000 0.000002 -11.364410 -1.364576 -10.740520 0.104871 0.594509 24.541609 15.698684 0.318666 -15.353259 -1.424891 1.104088 0.205837 0.000000 0.000000 -0.000001 
9.536706 95.701881 8.309296 -1.615310 -5.035823 2.890895 -0.544316 -0.144240 1.607564 -0.775576 -1.594813 -3.983943 -0.942677 -3.803049 9.814426 -7.457236 7.440691 13.132054 2.372097 12.059422 -3.460608 -1.664345 13.201972 -12.819399 0.000077 -0.000022 0.000006 -0.002387 -0.062957 -0.000573 0.701456 -3.800431 -10.648052 -0.712369 3.667263 -10.636911 9.863470 -13.863508 6.297656 -27.934851 -22.880896 -54.225105 178.039169 -50.538441 -178.760147 4.379967 -3.956609 -1.658020 -5.882100 9.861279 0.702590 -10.936856 -0.360575 7.156196 0.000001 8.774815 0.000000 -16.480375 17.694616 5.833002 -1.844031 2.498503 -2.507275 -10.163588 4.678940 4.621104 -20.975990 -0.000004 0.000001 -21.226250 2.451694 -3.593995 0.000000 -0.000006 -0.000000 -1.362681 2.240797 -0.746323 -21.334892 0.584909 3.008321 -13.821194 -0.000003 0.000001 -23.887131 -0.249079 -0.839483 -60.169430 2.536628 -1.554913 -0.294023 1.679687 0.833255 -14.218190 0.093214 1.300578 -34.212002 -0.287564 0.967169 -20.033178 0.964534 1.212842 0.000000 0.000000 -0.000000 -3.440386 0.788233 0.501654 -15.928169 -3.167306 2.999704 -6.338815 -0.000002 -0.000001 -18.123411 3.648176 -4.905663 -0.000004 -0.000001 -0.000002 1.902826 -2.630610 11.308847 51.598789 80.060799 3.717535 -179.200638 40.178291 -179.748871 -8.439213 -4.430182 -7.019126 2.243540 -5.255033 -3.180157 14.282877 -0.826592 6.952496 -0.000003 -12.690590 -0.000002 15.858646 -17.352993 2.516190 1.665667 -1.955921 -2.878299 4.727793 -4.170583 4.993918 11.020510 0.000004 -0.000001 12.109032 -3.735709 -2.866781 -0.000002 0.000000 0.000000 1.291983 -1.928548 -1.498088 14.800107 0.567470 3.865604 14.242550 -1.341735 -6.660649 19.631937 0.143926 -0.648242 49.018101 -0.653170 -6.309520 0.353029 -1.511149 -0.031940 20.222767 3.684308 2.316629 18.787247 0.000005 0.000001 10.751610 -0.479867 1.397905 0.000000 -0.000002 -0.000000 3.273805 0.305946 -0.580111 21.486790 11.830367 2.266134 8.162915 0.000003 0.000001 18.399048 -3.798977 -4.940566 0.000003 -0.000001 -0.000001 14.301320 12.464609 -25.045612 -0.148360 -0.575856 23.895655 -16.335205 -1.509249 2.030488 1.630831 -1.882243 0.616949 0.000000 -0.000000 0.000002 -11.437625 -1.362575 -10.575672 0.100489 0.591371 24.343798 15.739979 0.204475 -15.280281 -1.423995 1.117893 0.225756 0.000000 0.000000 -0.000001 
9.668689 95.736435 8.359840 -1.571669 -4.946385 2.894938 -0.551275 -0.134223 1.616699 -0.768000 -1.615488 -3.978340 -0.928538 -3.801000 9.802689 -7.413717 7.386902 12.990264 2.372037 12.047348 -3.456892 -1.758938 13.235995 -12.857706 0.000077 -0.000023 0.000006 -0.001023 -0.062858 -0.000836 0.703099 -3.792037 -10.647256 -0.712857 3.672018 -10.636865 9.958021 -13.932885 6.274452 -28.125282 -22.841223 -54.452595 178.179520 -50.550575 -178.872009 4.490032 -3.944690 -1.588201 -5.882102 9.861279 0.702587 -10.936858 -0.360574 7.156196 0.000001 8.774814 0.000000 -16.465023 17.702644 5.850715 -1.844031 2.498503 -2.507277 -10.163590 4.678940 4.621103 -20.975994 -0.000003 -0.000002 -21.226250 2.451693 -3.593997 0.000000 -0.000007 -0.000000 -1.362682 2.240797 -0.746324 -21.334887 0.584908 3.008318 -13.821197 -0.000004 -0.000000 -23.887129 -0.249079 -0.839484 -60.158131 2.551899 -1.537328 -0.294025 1.679686 0.833255 -14.218190 0.093215 1.300577 -34.211998 -0.287563 0.967165 -20.033176 0.964535 1.212839 0.000001 0.000000 -0.000000 -3.440386 0.788232 0.501656 -15.928167 -3.167306 2.999702 -6.338815 -0.000001 -0.000001 -18.123413 3.648176 -4.905664 -0.000004 -0.000001 -0.000002 1.832997 -2.619206 11.321021 51.801613 80.183372 3.667084 -179.258301 40.197090 -179.755463 -8.436037 -4.356511 -7.140904 2.243538 -5.255033 -3.180156 14.282877 -0.826592 6.952497 -0.000001 -12.690592 -0.000001 15.854992 -17.348524 2.515434 1.665665 -1.955920 -2.878296 4.727792 -4.170583 4.993918 11.020510 0.000003 -0.000001 12.109031 -3.735710 -2.866780 0.000001 0.000000 0.000000 1.291985 -1.928548 -1.498087 14.800113 0.567468 3.865604 14.242551 -1.341734 -6.660648 19.631939 0.143926 -0.648243 49.004978 -0.652885 -6.285351 0.353027 -1.511149 -0.031940 20.222769 3.684308 2.316629 18.787245 0.000005 0.000001 10.751610 -0.479867 1.397905 0.000001 0.000000 -0.000000 3.273806 0.305947 -0.580110 21.486788 11.830367 2.266133 8.162914 0.000002 0.000001 18.399050 -3.798981 -4.940566 0.000003 -0.000001 -0.000001 14.142444 12.453392 -25.083735 -0.156969 -0.578646 23.932945 -16.269714 -1.563660 2.111087 1.629861 -1.879762 0.636324 -0.000000 0.000000 0.000002 -11.571184 -1.361348 -10.368032 0.110058 0.590199 24.011185 15.812172 0.091196 -15.145466 -1.423918 1.125321 0.204051 0.000000 0.000000 -0.000001 
9.834860 95.752464 8.410433 -1.534763 -4.887383 2.927592 -0.557544 -0.124554 1.609505 -0.758147 -1.624885 -3.979840 -0.903062 -3.785385 9.784613 -7.386973 7.305627 12.856420 2.382500 12.074098 -3.464324 -1.829142 13.295265 -12.881628 0.000077 -0.000023 0.000006 -0.002557 -0.062764 -0.003712 0.705507 -3.801544 -10.652072 -0.714653 3.667699 -10.643734 10.042907 -13.988077 6.228443 -28.297289 -22.824282 -54.635284 178.328918 -50.540630 -178.963898 4.548025 -3.946175 -1.503262 -5.882101 9.861279 0.702590 -10.936857 -0.360572 7.156196 0.000000 8.774814 -0.000001 -16.451481 17.687738 5.842959 -1.844031 2.498503 -2.507275 -10.163588 4.678941 4.621103 -20.975986 -0.000005 0.000001 -21.226246 2.451692 -3.593993 0.000000 -0.000007 -0.000000 -1.362680 2.240797 -0.746323 -21.334887 0.584909 3.008320 -13.821193 -0.000002 0.000002 -23.887121 -0.249076 -0.839481 -60.156212 2.575680 -1.537085 -0.294024 1.679686 0.833256 -14.218192 0.093214 1.300579 -34.211998 -0.287563 0.967170 -20.033176 0.964536 1.212842 0.000000 0.000002 0.000000 -3.440385 0.788233 0.501654 -15.928165 -3.167306 2.999704 -6.338813 -0.000001 0.000001 -18.123411 3.648179 -4.905660 -0.000004 -0.000001 -0.000001 1.789155 -2.618859 11.336563 51.951183 80.278175 3.594321 -179.298386 40.185318 -179.756821 -8.435765 -4.265767 -7.297967 2.243539 -5.255032 -3.180155 14.282877 -0.826593 6.952496 -0.000004 -12.690588 0.000002 15.879067 -17.315466 2.501794 1.665663 -1.955919 -2.878296 4.727795 -4.170583 4.993920 11.020513 0.000003 -0.000001 12.109028 -3.735709 -2.866779 0.000000 0.000000 -0.000000 1.291984 -1.928548 -1.498087 14.800109 0.567468 3.865604 14.242551 -1.341735 -6.660649 19.631937 0.143925 -0.648243 49.025887 -0.653460 -6.261037 0.353027 -1.511149 -0.031938 20.222769 3.684306 2.316629 18.787245 0.000005 0.000001 10.751609 -0.479868 1.397905 0.000000 -0.000001 0.000000 3.273806 0.305946 -0.580110 21.486790 11.830363 2.266131 8.162916 0.000003 0.000001 18.399052 -3.798980 -4.940566 0.000003 0.000000 -0.000001 13.961162 12.453575 -25.157166 -0.149948 -0.573946 23.997450 -16.206505 -1.635676 1.910216 1.629724 -1.874912 0.656677 0.000000 -0.000000 0.000002 -11.717669 -1.389301 -10.195623 0.105095 0.591547 23.665064 15.887791 0.014869 -15.040269 -1.424588 1.118619 0.191581 0.000000 0.000000 -0.000001 
